<?xml version="1.0" standalone="no"?>
<!DOCTYPE svg PUBLIC "-//W3C//DTD SVG 20010904//EN"
 "http://www.w3.org/TR/2001/REC-SVG-20010904/DTD/svg10.dtd">
<svg version="1.0" xmlns="http://www.w3.org/2000/svg"
 width="720.000000pt" height="720.000000pt" viewBox="0 0 720.000000 720.000000"
 preserveAspectRatio="xMidYMid meet">
<metadata>
Created by potrace 1.14, written by Peter Selinger 2001-2017
</metadata>
<g transform="translate(0.000000,720.000000) scale(0.100000,-0.100000)"
fill="#000000" stroke="none">
<path d="M870 3621 l0 -2778 398 4 c218 3 402 6 407 8 6 2 -145 5 -335 6 -190
1 -316 5 -280 9 36 4 55 7 43 8 -16 1 -23 8 -23 22 0 11 4 20 10 20 5 0 8 10
6 22 -1 13 -9 23 -17 23 -8 0 -13 -6 -11 -13 1 -7 -5 -15 -13 -18 -18 -7 -20
-40 -2 -48 6 -3 -10 -4 -36 -2 -26 2 -50 6 -53 9 -6 6 81 97 92 97 3 0 22 14
41 30 18 17 38 30 44 30 6 0 16 6 23 13 8 6 36 32 65 55 45 39 68 82 42 82 -4
0 -11 15 -14 33 -3 18 -15 54 -27 80 -12 26 -20 53 -17 60 3 8 1 20 -4 28 -7
11 -9 10 -9 -6 -1 -20 -1 -20 -12 -1 -17 30 -48 119 -48 139 0 18 36 56 84 90
19 13 26 27 26 50 0 18 7 45 15 61 8 15 15 48 15 73 0 27 7 54 19 71 13 17 22
50 25 90 3 34 12 84 20 110 8 26 19 65 25 87 21 88 34 131 47 162 8 21 13 69
13 130 0 89 12 209 27 269 3 12 -1 60 -10 106 -8 46 -17 97 -19 113 -4 30 -32
115 -49 148 -4 10 -11 46 -13 80 -9 120 -26 242 -36 263 -6 11 -37 34 -69 50
-70 34 -74 51 -34 135 32 67 92 167 116 195 17 19 17 21 0 40 -24 28 -42 61
-42 79 0 8 -4 15 -8 15 -13 0 -43 108 -61 221 -14 83 -14 149 -1 149 6 0 10
-16 10 -35 0 -31 9 -58 53 -155 29 -62 100 -130 137 -130 11 0 14 53 3 64 -36
35 -96 334 -80 398 8 29 66 63 125 73 42 7 59 25 22 25 -13 0 -18 5 -14 15 4
8 1 15 -5 15 -6 0 -8 7 -5 15 9 23 -11 18 -44 -10 -17 -14 -33 -25 -36 -25
-13 0 -79 -66 -106 -105 -15 -22 -40 -53 -54 -70 l-27 -30 13 30 c19 45 90
143 150 205 62 64 120 105 167 115 27 6 32 10 27 28 -3 12 -6 48 -6 80 0 45
-3 57 -16 57 -8 0 -12 5 -9 10 3 6 -1 10 -9 10 -9 0 -16 -6 -16 -12 0 -9 -3
-8 -9 2 -10 15 -49 17 -125 6 -29 -5 -46 -4 -46 3 0 12 -16 8 -88 -25 -57 -26
-72 -29 -72 -15 0 5 12 12 26 15 42 11 23 16 -21 6 l-40 -9 24 20 c13 10 30
19 37 19 14 0 23 4 81 34 17 9 43 16 58 16 14 0 35 5 45 10 11 6 46 13 79 17
34 3 65 11 70 17 8 10 0 95 -34 368 l-8 57 54 -4 c30 -3 106 -7 169 -10 63 -2
131 -7 150 -10 50 -8 68 6 46 36 -21 30 -20 39 2 39 21 0 171 -118 306 -241
62 -56 100 -88 145 -119 30 -21 34 -22 43 -7 5 10 14 17 21 17 9 0 9 -2 0 -8
-8 -5 -4 -11 12 -18 22 -11 22 -9 -8 40 -17 28 -37 57 -44 64 -7 7 -20 26 -30
42 -9 17 -21 30 -25 30 -13 0 -9 27 6 39 10 9 24 -1 62 -43 27 -29 57 -64 67
-77 10 -13 16 -19 13 -14 -2 6 -7 39 -10 73 -3 34 -10 69 -15 79 -6 10 -20 40
-32 67 -12 28 -33 67 -47 88 -28 43 -23 63 8 28 18 -21 28 -23 97 -22 42 1 79
6 82 11 3 4 16 11 28 15 18 6 25 1 36 -21 23 -46 50 -179 44 -217 -5 -34 -5
-35 18 -24 17 7 33 7 56 -1 42 -15 52 -14 46 3 -3 8 -1 17 6 20 7 2 4 5 -5 5
-10 1 -18 6 -18 12 0 6 6 9 14 6 8 -3 31 3 52 15 20 11 67 26 103 34 36 8 84
18 105 23 45 11 94 4 114 -16 7 -7 20 -13 28 -13 20 0 17 -27 -3 -35 -16 -6
-16 -8 -3 -18 21 -17 22 -48 2 -64 -15 -11 -14 -12 9 -13 14 0 72 12 128 26
l101 25 76 -26 c96 -33 124 -46 124 -57 0 -23 303 26 337 54 8 6 25 33 38 59
14 26 37 57 52 69 l28 22 3 -27 c2 -16 -6 -42 -22 -66 -29 -43 -32 -59 -13
-59 7 0 23 18 37 40 19 31 31 40 52 40 30 0 35 -11 16 -32 -47 -51 -42 -81 15
-94 18 -3 64 -17 102 -30 83 -28 86 -29 57 -8 -27 19 -20 39 9 24 25 -14 68
15 99 65 19 31 60 49 60 27 0 -5 6 -16 13 -26 12 -16 19 -9 70 68 63 93 75
105 87 86 5 -9 9 -9 14 -1 4 6 2 11 -3 11 -6 0 -11 4 -11 8 0 15 142 162 156
162 8 0 14 4 14 10 0 5 16 20 35 32 19 13 37 31 40 40 3 9 21 22 40 28 31 10
38 9 70 -17 19 -15 35 -34 35 -40 0 -7 7 -13 15 -13 8 0 15 -4 15 -10 0 -5 -5
-10 -11 -10 -8 0 -9 -13 -5 -41 7 -46 -10 -108 -50 -170 -30 -47 -27 -62 18
-88 68 -41 73 -57 32 -116 -14 -21 -24 -47 -22 -59 3 -24 38 -36 38 -13 0 8
14 25 31 38 17 13 61 51 96 84 68 63 116 82 177 70 24 -4 46 6 120 57 50 34
93 66 94 70 2 4 10 8 19 8 8 0 21 6 28 13 48 42 55 45 55 22 0 -8 -4 -15 -9
-15 -5 0 -8 -11 -8 -25 0 -19 -37 -60 -152 -172 -83 -81 -151 -151 -151 -156
0 -9 22 -6 67 9 15 5 15 4 3 -5 -11 -8 6 -11 68 -11 87 0 118 -19 35 -21 -47
-2 -46 -2 17 -11 36 -4 83 -12 105 -17 26 -6 44 -6 53 1 9 8 16 7 25 -4 7 -8
33 -23 60 -32 36 -14 63 -36 115 -94 37 -42 88 -97 115 -122 26 -25 47 -52 47
-58 0 -7 8 -12 18 -13 11 0 12 -2 4 -6 -7 -3 -29 12 -48 32 -19 21 -38 35 -41
31 -4 -3 6 -20 22 -36 16 -17 30 -37 31 -46 1 -9 11 -25 21 -36 10 -12 26 -31
36 -42 30 -35 85 -121 102 -162 16 -38 16 -39 -3 -18 -11 11 -25 31 -32 45
-21 39 -97 133 -120 147 -19 12 -20 11 -8 -8 7 -11 17 -20 23 -20 9 0 44 -47
71 -95 6 -11 24 -45 41 -75 31 -55 58 -129 32 -85 -7 11 -15 22 -19 25 -4 3
-17 24 -30 47 -40 73 -33 39 9 -43 22 -44 43 -95 47 -114 4 -28 -2 -20 -33 40
-22 42 -60 105 -85 140 -45 63 -113 140 -123 140 -16 0 60 -128 109 -184 32
-36 34 -57 3 -28 -40 37 -50 24 -13 -15 20 -21 36 -42 36 -47 0 -5 11 -24 24
-41 l25 -32 -27 -26 c-15 -14 -46 -33 -69 -43 -81 -35 -55 -61 27 -28 55 22
100 6 100 -37 0 -33 -35 -60 -102 -81 -21 -6 -38 -15 -38 -20 0 -4 -10 -8 -22
-8 -46 0 -68 -12 -68 -35 0 -13 6 -30 13 -37 7 -7 19 -33 27 -58 7 -25 20 -58
29 -75 8 -16 14 -36 13 -42 -2 -7 2 -13 8 -13 5 0 10 -6 10 -14 0 -7 6 -19 14
-25 18 -15 79 -142 97 -199 7 -24 20 -47 28 -52 10 -6 11 -10 4 -10 -9 0 -13
-16 -13 -46 0 -27 4 -43 10 -39 6 3 10 0 10 -7 -1 -19 -37 -153 -48 -174 -5
-11 -17 -33 -26 -51 -16 -31 -22 -116 -10 -147 3 -9 13 -16 22 -16 13 0 13 2
-1 18 -10 10 -17 31 -17 47 l0 28 20 -26 c11 -14 20 -30 20 -36 0 -5 8 -16 18
-23 23 -18 55 -76 47 -88 -3 -5 0 -7 8 -4 8 3 18 -5 24 -18 10 -21 45 -67 86
-109 9 -11 17 -27 17 -36 1 -14 4 -12 14 6 8 15 14 55 14 99 0 74 -1 76 -39
114 -22 22 -39 44 -39 49 0 5 -6 9 -13 9 -15 0 -47 51 -47 74 0 9 7 19 15 22
8 4 15 12 15 20 0 8 5 14 12 14 6 0 22 10 35 21 18 18 25 20 38 9 19 -16 17
-144 16 1245 0 638 -1 1350 -1 1583 l0 422 -2775 0 -2775 -1 0 -2778z m573
1262 c-7 -2 -19 -2 -25 0 -7 3 -2 5 12 5 14 0 19 -2 13 -5z"/>
<path d="M4980 5550 c0 -5 5 -10 10 -10 6 0 10 5 10 10 0 6 -4 10 -10 10 -5 0
-10 -4 -10 -10z"/>
<path d="M4906 5523 c-6 -14 -5 -15 5 -6 7 7 10 15 7 18 -3 3 -9 -2 -12 -12z"/>
<path d="M4881 5484 c0 -11 3 -14 6 -6 3 7 2 16 -1 19 -3 4 -6 -2 -5 -13z"/>
<path d="M5005 5469 c-12 -19 5 -23 22 -6 16 16 16 17 1 17 -9 0 -20 -5 -23
-11z"/>
<path d="M2483 5433 c9 -2 23 -2 30 0 6 3 -1 5 -18 5 -16 0 -22 -2 -12 -5z"/>
<path d="M4765 5430 c-3 -5 -1 -10 4 -10 6 0 11 5 11 10 0 6 -2 10 -4 10 -3 0
-8 -4 -11 -10z"/>
<path d="M4977 5405 c-4 -8 -2 -17 3 -20 6 -4 10 3 10 14 0 25 -6 27 -13 6z"/>
<path d="M2551 5344 c0 -11 3 -14 6 -6 3 7 2 16 -1 19 -3 4 -6 -2 -5 -13z"/>
<path d="M3120 5281 c0 -11 4 -21 9 -21 18 0 21 18 6 30 -13 10 -15 9 -15 -9z"/>
<path d="M4625 5279 c-4 -6 -5 -12 -2 -15 2 -3 7 2 10 11 7 17 1 20 -8 4z"/>
<path d="M4660 5280 c-9 -6 -10 -10 -3 -10 6 0 15 5 18 10 8 12 4 12 -15 0z"/>
<path d="M5338 5276 c-23 -17 -23 -26 2 -26 11 0 20 6 20 14 0 8 8 17 18 19
14 4 14 5 -3 6 -11 0 -28 -6 -37 -13z"/>
<path d="M5270 5260 c0 -5 9 -10 20 -10 11 0 20 5 20 10 0 6 -9 10 -20 10 -11
0 -20 -4 -20 -10z"/>
<path d="M2490 5236 c0 -9 5 -16 10 -16 6 0 10 4 10 9 0 6 -4 13 -10 16 -5 3
-10 -1 -10 -9z"/>
<path d="M4582 5220 c-12 -16 -16 -27 -9 -25 14 6 41 45 34 51 -2 2 -13 -10
-25 -26z"/>
<path d="M4820 5180 c0 -5 5 -10 10 -10 6 0 10 5 10 10 0 6 -4 10 -10 10 -5 0
-10 -4 -10 -10z"/>
<path d="M5190 5150 c0 -5 4 -10 9 -10 6 0 13 5 16 10 3 6 -1 10 -9 10 -9 0
-16 -4 -16 -10z"/>
<path d="M4787 5135 c-4 -8 -3 -16 1 -19 4 -3 9 4 9 15 2 23 -3 25 -10 4z"/>
<path d="M5115 5119 c-4 -6 -5 -12 -2 -15 2 -3 7 2 10 11 7 17 1 20 -8 4z"/>
<path d="M5140 5110 c0 -5 4 -10 9 -10 6 0 13 5 16 10 3 6 -1 10 -9 10 -9 0
-16 -4 -16 -10z"/>
<path d="M4865 5101 c-3 -5 -1 -12 5 -16 5 -3 10 1 10 9 0 18 -6 21 -15 7z"/>
<path d="M5040 5070 c0 -5 4 -10 9 -10 6 0 13 5 16 10 3 6 -1 10 -9 10 -9 0
-16 -4 -16 -10z"/>
<path d="M4835 5030 c4 -6 11 -8 16 -5 14 9 11 15 -7 15 -8 0 -12 -5 -9 -10z"/>
<path d="M4907 5033 c-13 -13 -7 -32 8 -27 8 4 15 12 15 20 0 15 -12 19 -23 7z"/>
<path d="M4960 5020 c0 -5 7 -10 15 -10 8 0 15 5 15 10 0 6 -7 10 -15 10 -8 0
-15 -4 -15 -10z"/>
<path d="M4935 4989 c-4 -6 -13 -8 -21 -5 -9 3 -14 -2 -14 -14 0 -25 27 -26
59 -4 18 13 20 18 10 25 -19 12 -27 11 -34 -2z"/>
<path d="M5798 4643 c7 -3 16 -2 19 1 4 3 -2 6 -13 5 -11 0 -14 -3 -6 -6z"/>
<path d="M5886 4574 c24 -25 42 -50 38 -56 -4 -6 -24 -8 -48 -5 -32 4 -37 3
-22 -5 15 -8 16 -12 5 -20 -9 -6 -1 -7 26 -3 l40 6 -50 -25 c-27 -14 -57 -26
-66 -26 -8 0 -24 -7 -35 -16 -18 -14 -18 -15 -1 -10 57 18 67 14 22 -9 -27
-14 -56 -25 -62 -25 -7 0 -13 -7 -13 -15 0 -19 4 -19 82 1 79 19 166 51 196
70 18 12 26 13 38 3 8 -6 17 -10 19 -7 6 6 -193 188 -205 188 -5 0 12 -21 36
-46z m64 -74 c0 -5 -4 -10 -10 -10 -5 0 -10 5 -10 10 0 6 5 10 10 10 6 0 10
-4 10 -10z"/>
<path d="M6076 4343 c-6 -14 -5 -15 5 -6 7 7 10 15 7 18 -3 3 -9 -2 -12 -12z"/>
<path d="M5795 4220 c3 -5 8 -10 11 -10 2 0 4 5 4 10 0 6 -5 10 -11 10 -5 0
-7 -4 -4 -10z"/>
<path d="M1700 4191 c0 -6 4 -13 10 -16 6 -3 7 1 4 9 -7 18 -14 21 -14 7z"/>
<path d="M3205 4173 c-15 -16 -39 -45 -53 -65 l-24 -38 -20 25 c-26 33 -93 50
-254 64 l-130 12 -65 -31 c-82 -40 -270 -158 -307 -193 -15 -15 -35 -27 -44
-27 -8 0 -21 -6 -27 -14 -10 -12 -8 -19 7 -34 11 -11 25 -21 31 -23 6 -2 16
-31 21 -64 6 -33 17 -73 25 -90 8 -16 25 -56 39 -87 17 -39 44 -76 84 -114 57
-53 59 -57 49 -85 -13 -34 -24 -36 -72 -9 -44 25 -67 26 -58 3 4 -11 3 -14 -5
-9 -8 5 -12 -3 -12 -23 0 -23 10 -41 38 -67 35 -33 40 -35 86 -29 62 8 133 41
139 65 3 11 1 20 -4 22 -5 2 12 4 39 5 26 1 67 9 91 18 30 10 48 12 55 5 14
-14 47 -12 44 3 -2 6 19 32 45 56 48 45 48 45 77 28 15 -9 40 -17 55 -17 25 0
26 -2 22 -47 -3 -27 -20 -82 -39 -124 -24 -50 -34 -85 -31 -105 5 -32 -17 -59
-52 -65 -11 -2 -27 -18 -35 -34 -20 -38 -143 -154 -249 -235 -67 -52 -96 -80
-81 -80 8 0 59 17 114 38 84 31 104 44 135 81 20 24 62 72 94 106 43 47 64 80
83 131 13 37 28 71 33 74 14 8 83 122 121 197 30 59 42 73 82 93 26 13 46 26
45 29 -1 3 27 62 61 131 l63 125 -35 28 c-40 32 -46 48 -16 40 11 -3 20 -1 20
4 0 8 8 21 56 81 40 51 38 58 -28 120 -34 31 -75 69 -90 84 -38 36 -79 68 -88
68 -4 0 -20 -12 -35 -27z m-422 -108 c82 -16 97 -21 97 -37 0 -22 18 -60 33
-69 5 -4 27 -21 49 -40 63 -51 84 -93 90 -175 5 -63 2 -78 -21 -125 -21 -43
-32 -55 -56 -60 -39 -7 -71 -24 -122 -66 -22 -19 -56 -38 -75 -43 -41 -12
-122 1 -176 29 -79 40 -181 176 -189 251 -2 19 -6 52 -9 72 -10 61 20 136 74
185 26 24 50 43 55 43 4 0 21 13 39 30 35 34 46 35 211 5z m294 -72 c22 -16
49 -35 61 -44 12 -9 34 -45 48 -80 21 -51 25 -75 21 -116 -3 -29 -8 -57 -11
-61 -3 -6 -24 -5 -50 1 l-44 10 -4 66 c-6 70 -17 100 -73 194 -33 56 -33 57
-11 57 13 0 41 -12 63 -27z m-497 -583 c0 -5 -2 -10 -4 -10 -3 0 -8 5 -11 10
-3 6 -1 10 4 10 6 0 11 -4 11 -10z m-94 -48 c-10 -2 -22 0 -28 6 -6 6 0 7 19
4 21 -5 23 -7 9 -10z m-29 -18 c-3 -3 -12 -4 -19 -1 -8 3 -5 6 6 6 11 1 17 -2
13 -5z m133 -28 c0 -2 -7 -6 -15 -10 -8 -3 -15 -1 -15 4 0 6 7 10 15 10 8 0
15 -2 15 -4z"/>
<path d="M2626 3984 c-3 -8 -1 -24 4 -34 6 -10 10 -41 10 -69 0 -46 -2 -51
-25 -57 -16 -4 -34 0 -50 10 -24 16 -25 15 -31 -9 -10 -39 4 -88 35 -125 l28
-34 30 24 c53 43 67 77 67 155 -1 95 -48 191 -68 139z"/>
<path d="M4125 4110 c-92 -38 -150 -47 -173 -27 -38 34 -203 52 -301 32 -49
-9 -60 -16 -91 -58 -19 -25 -48 -79 -64 -119 -15 -40 -37 -94 -47 -120 -10
-26 -19 -65 -19 -88 0 -39 2 -42 43 -60 44 -19 160 -30 188 -17 14 7 17 -3 23
-72 4 -53 2 -88 -5 -105 -16 -34 2 -98 42 -148 16 -20 29 -40 29 -43 0 -3 21
-35 47 -69 39 -52 50 -62 64 -53 12 8 21 5 37 -11 12 -12 27 -19 34 -16 21 8
72 85 61 93 -5 3 -41 51 -78 106 -38 55 -73 102 -77 103 -21 9 -4 22 27 22 24
0 43 -8 64 -29 30 -29 138 -77 149 -66 16 16 -22 49 -155 137 -35 22 -65 48
-67 57 -12 36 -27 246 -21 278 5 29 13 38 53 55 101 45 146 15 77 -52 -25 -24
-35 -42 -35 -64 0 -48 24 -129 40 -134 9 -3 11 0 5 14 -26 65 -33 113 -19 141
15 29 125 137 157 155 35 18 112 38 152 38 116 0 297 -88 410 -198 42 -41 78
-72 81 -69 6 5 -30 64 -46 77 -4 3 -22 27 -41 53 -69 97 -80 112 -100 130 -45
42 -222 107 -292 107 -29 0 -57 19 -57 39 0 16 -18 13 -95 -19z m-265 -750
c-8 -5 -19 -10 -25 -10 -5 0 -3 5 5 10 8 5 20 10 25 10 6 0 3 -5 -5 -10z m-85
-50 c3 -5 1 -10 -4 -10 -6 0 -11 5 -11 10 0 6 2 10 4 10 3 0 8 -4 11 -10z
m125 -33 c0 -23 -2 -22 -19 10 -10 19 -9 22 4 17 8 -4 15 -15 15 -27z m70 -47
c0 -5 -4 -10 -10 -10 -5 0 -10 5 -10 10 0 6 5 10 10 10 6 0 10 -4 10 -10z
m-128 -32 c-7 -7 -12 -8 -12 -2 0 6 3 14 7 17 3 4 9 5 12 2 2 -3 -1 -11 -7
-17z m66 0 c9 -9 12 -9 12 0 0 14 26 16 34 3 3 -5 -2 -8 -12 -7 -10 0 -17 -6
-16 -15 2 -23 -33 -12 -39 12 -6 22 3 25 21 7z"/>
<path d="M6140 4120 c0 -5 5 -10 10 -10 6 0 10 5 10 10 0 6 -4 10 -10 10 -5 0
-10 -4 -10 -10z"/>
<path d="M6108 4073 c7 -3 16 -2 19 1 4 3 -2 6 -13 5 -11 0 -14 -3 -6 -6z"/>
<path d="M5755 4030 c3 -5 8 -10 11 -10 2 0 4 5 4 10 0 6 -5 10 -11 10 -5 0
-7 -4 -4 -10z"/>
<path d="M4318 3831 c-49 -50 -78 -111 -78 -168 0 -44 5 -58 31 -88 38 -43 67
-52 107 -31 92 48 107 171 31 274 -36 49 -53 51 -91 13z m88 -48 c29 -38 6
-103 -36 -103 -14 0 -31 5 -38 12 -15 15 -16 63 -2 89 13 24 58 25 76 2z"/>
<path d="M4657 3613 c-4 -4 -5 -21 -1 -39 5 -28 1 -37 -35 -71 -75 -74 -218
-133 -320 -133 -102 0 -222 73 -257 156 -14 33 -28 42 -38 26 -7 -12 69 -121
111 -159 l36 -33 -29 -1 -29 -1 36 -16 c19 -10 43 -25 53 -34 16 -16 75 -38
104 -38 6 0 12 -6 12 -14 0 -8 9 -18 20 -21 12 -4 20 -15 20 -29 0 -13 6 -28
13 -33 19 -15 91 -33 130 -33 20 0 39 -4 42 -10 10 -16 25 -12 25 8 0 13 2 14
9 3 7 -11 15 -11 47 0 22 7 46 18 54 24 8 7 35 23 61 38 43 24 151 117 137
117 -4 0 -41 -18 -84 -39 -42 -22 -83 -37 -90 -34 -8 3 -23 19 -34 36 -11 18
-29 42 -39 55 -19 22 -20 22 -53 4 -49 -27 -74 -31 -97 -15 -30 20 -27 28 24
54 75 40 153 102 177 141 13 21 26 38 31 38 4 0 7 6 7 14 0 8 6 17 13 19 6 3
2 6 -10 6 -13 1 -23 6 -23 11 0 11 -13 13 -23 3z m-32 -323 c3 -5 1 -10 -4
-10 -6 0 -11 5 -11 10 0 6 2 10 4 10 3 0 8 -4 11 -10z m-225 -110 c0 -5 -2
-10 -4 -10 -3 0 -8 5 -11 10 -3 6 -1 10 4 10 6 0 11 -4 11 -10z"/>
<path d="M3980 3606 c0 -2 7 -9 15 -16 13 -11 14 -10 9 4 -5 14 -24 23 -24 12z"/>
<path d="M6130 3591 c0 -5 5 -13 10 -16 6 -3 10 -2 10 4 0 5 -4 13 -10 16 -5
3 -10 2 -10 -4z"/>
<path d="M6120 3495 c0 -8 2 -15 4 -15 2 0 6 7 10 15 3 8 1 15 -4 15 -6 0 -10
-7 -10 -15z"/>
<path d="M3333 3450 c-50 -10 -101 -47 -124 -87 -28 -50 -11 -68 81 -91 l35
-8 -3 -145 c-3 -123 -1 -149 15 -179 22 -42 54 -47 63 -10 5 23 11 25 63 28
54 3 60 1 87 -28 19 -20 43 -33 74 -39 25 -5 46 -5 46 -2 0 4 -15 21 -32 38
-18 18 -41 40 -51 51 -9 10 -43 25 -74 32 -107 23 -103 19 -103 136 0 113 6
124 64 124 14 0 48 9 76 20 28 11 64 20 80 20 42 0 37 19 -15 60 -25 19 -48
43 -51 53 -3 9 -11 17 -17 18 -7 1 -30 3 -52 4 -22 2 -58 6 -80 9 -22 2 -59 1
-82 -4z"/>
<path d="M6146 3427 c3 -10 9 -15 12 -12 3 3 0 11 -7 18 -10 9 -11 8 -5 -6z"/>
<path d="M6020 3400 c0 -5 5 -10 10 -10 6 0 10 5 10 10 0 6 -4 10 -10 10 -5 0
-10 -4 -10 -10z"/>
<path d="M6101 3405 c1 -19 18 -51 18 -35 0 8 -4 22 -9 30 -5 8 -9 11 -9 5z"/>
<path d="M6047 3363 c-3 -5 -1 -17 4 -28 7 -17 8 -17 8 8 1 27 -4 34 -12 20z"/>
<path d="M6131 3314 c0 -11 3 -14 6 -6 3 7 2 16 -1 19 -3 4 -6 -2 -5 -13z"/>
<path d="M6105 3228 c3 -16 1 -28 -5 -28 -5 0 -10 8 -11 18 0 11 -2 12 -6 4
-3 -7 1 -20 8 -28 11 -13 14 -13 21 -1 4 9 3 26 -2 39 -10 22 -10 22 -5 -4z"/>
<path d="M5985 3230 c-3 -5 -1 -10 4 -10 6 0 11 5 11 10 0 6 -2 10 -4 10 -3 0
-8 -4 -11 -10z"/>
<path d="M6170 3215 c0 -8 4 -15 10 -15 5 0 7 7 4 15 -4 8 -8 15 -10 15 -2 0
-4 -7 -4 -15z"/>
<path d="M6011 3153 c-1 -12 4 -25 9 -28 12 -7 12 2 0 30 -8 19 -9 19 -9 -2z"/>
<path d="M6122 3150 c0 -14 2 -19 5 -12 2 6 2 18 0 25 -3 6 -5 1 -5 -13z"/>
<path d="M3894 3121 c4 -6 13 -11 19 -11 7 0 22 -11 34 -23 22 -24 83 -47 122
-47 14 0 54 -32 115 -94 73 -73 97 -92 106 -83 10 10 11 6 6 -15 -6 -28 7 -39
18 -15 3 6 3 0 0 -15 -4 -20 -2 -28 7 -28 8 0 28 -19 44 -41 17 -23 40 -45 53
-50 13 -5 21 -13 18 -17 -3 -5 11 -27 32 -48 20 -22 57 -61 80 -88 24 -26 46
-45 49 -43 6 6 -38 67 -48 67 -3 0 -18 18 -33 40 -16 24 -31 38 -38 34 -7 -5
-9 -2 -5 8 3 10 -6 29 -25 49 -16 19 -35 48 -43 64 -20 47 -75 116 -86 110 -5
-4 -8 -3 -7 2 4 11 -52 83 -64 83 -14 0 -33 21 -51 57 -24 46 -89 74 -155 66
-36 -4 -52 -2 -52 6 0 6 -8 11 -18 11 -10 0 -22 4 -27 9 -16 15 -59 25 -51 12z
m390 -240 c-6 -6 -34 21 -46 43 -8 15 -2 12 19 -9 16 -16 28 -32 27 -34z m70
-67 c8 -21 3 -26 -17 -18 -9 3 -13 12 -10 20 7 19 19 18 27 -2z m56 -85 c0 -5
-9 0 -20 11 -11 11 -20 26 -20 33 1 13 40 -30 40 -44z"/>
<path d="M5958 3113 c7 -3 16 -2 19 1 4 3 -2 6 -13 5 -11 0 -14 -3 -6 -6z"/>
<path d="M5960 3070 c0 -5 5 -10 11 -10 5 0 7 5 4 10 -3 6 -8 10 -11 10 -2 0
-4 -4 -4 -10z"/>
<path d="M6401 3054 c0 -11 3 -14 6 -6 3 7 2 16 -1 19 -3 4 -6 -2 -5 -13z"/>
<path d="M5970 3029 c0 -5 5 -7 10 -4 6 3 10 8 10 11 0 2 -4 4 -10 4 -5 0 -10
-5 -10 -11z"/>
<path d="M3205 2925 c-7 -51 -25 -67 -93 -85 -35 -9 -46 -18 -58 -45 -8 -19
-14 -44 -14 -57 0 -14 -20 -43 -51 -74 -52 -53 -67 -57 -98 -27 -13 14 -53 8
-59 -9 -2 -4 -10 -14 -17 -21 -7 -7 -27 -42 -46 -78 -18 -35 -36 -66 -40 -69
-10 -8 -31 -79 -25 -88 11 -18 108 -72 103 -57 -4 8 -1 15 6 15 9 0 11 -13 9
-39 -2 -21 1 -42 7 -45 25 -16 79 24 136 100 33 44 63 81 67 82 4 2 8 8 8 13
0 5 13 27 29 50 17 22 35 56 41 74 13 40 36 50 76 35 22 -9 38 -8 65 0 30 10
45 10 88 -5 28 -9 53 -20 56 -25 3 -5 25 3 49 16 42 23 47 24 116 13 39 -6 81
-8 92 -6 22 6 68 -11 68 -25 0 -9 133 -138 156 -151 10 -6 14 -2 14 17 0 27
18 45 29 29 3 -6 22 -19 41 -29 19 -11 49 -29 67 -41 17 -13 36 -23 42 -23 27
0 6 34 -65 107 -42 43 -96 102 -120 132 -35 45 -40 57 -31 72 9 14 6 39 -11
111 -12 51 -24 110 -28 131 -7 44 -20 48 -29 8 -3 -16 -17 -42 -31 -58 -13
-15 -24 -35 -24 -44 0 -21 -26 -43 -40 -34 -5 3 -10 2 -10 -4 0 -5 -12 -23
-26 -40 l-26 -31 -152 0 c-170 0 -199 8 -176 49 9 18 9 26 -3 39 -25 29 -67
116 -67 139 0 41 -18 24 -25 -22z m-260 -355 c3 -5 1 -10 -4 -10 -6 0 -11 5
-11 10 0 6 2 10 4 10 3 0 8 -4 11 -10z m-45 -174 c0 -3 -4 -8 -10 -11 -5 -3
-10 -1 -10 4 0 6 5 11 10 11 6 0 10 -2 10 -4z"/>
<path d="M5970 2966 c0 -2 8 -10 18 -17 15 -13 16 -12 3 4 -13 16 -21 21 -21
13z"/>
<path d="M6056 2845 c4 -8 10 -15 15 -15 4 0 6 7 3 15 -4 8 -10 15 -15 15 -4
0 -6 -7 -3 -15z"/>
<path d="M6140 2789 c0 -5 5 -7 10 -4 6 3 10 8 10 11 0 2 -4 4 -10 4 -5 0 -10
-5 -10 -11z"/>
<path d="M6240 2766 c0 -9 7 -16 16 -16 9 0 14 5 12 12 -6 18 -28 21 -28 4z"/>
<path d="M6151 2734 c0 -11 3 -14 6 -6 3 7 2 16 -1 19 -3 4 -6 -2 -5 -13z"/>
<path d="M6328 2713 c7 -3 16 -2 19 1 4 3 -2 6 -13 5 -11 0 -14 -3 -6 -6z"/>
<path d="M6401 2664 c0 -11 3 -14 6 -6 3 7 2 16 -1 19 -3 4 -6 -2 -5 -13z"/>
<path d="M6328 2643 c7 -3 16 -2 19 1 4 3 -2 6 -13 5 -11 0 -14 -3 -6 -6z"/>
<path d="M6120 2633 c0 -5 5 -15 10 -23 8 -12 10 -11 10 8 0 12 -4 22 -10 22
-5 0 -10 -3 -10 -7z"/>
<path d="M6320 2600 c0 -5 9 -10 20 -10 11 0 20 5 20 10 0 6 -9 10 -20 10 -11
0 -20 -4 -20 -10z"/>
<path d="M6222 2170 c0 -19 2 -27 5 -17 2 9 2 25 0 35 -3 9 -5 1 -5 -18z"/>
<path d="M4520 1931 c0 -5 11 -18 25 -29 14 -11 25 -23 25 -27 0 -11 31 -38
37 -32 11 12 -43 92 -65 95 -12 2 -22 -1 -22 -7z"/>
<path d="M5198 1915 c-3 -3 -34 -10 -69 -15 -102 -16 -109 -19 -109 -41 0 -11
3 -18 8 -16 4 3 8 -36 10 -86 2 -51 7 -95 10 -98 7 -6 214 21 299 39 37 8 38
9 37 53 0 24 -6 72 -14 107 l-14 62 -76 0 c-42 0 -79 -2 -82 -5z"/>
<path d="M4717 1864 c3 -8 8 -14 12 -14 4 0 15 -14 26 -32 23 -39 32 -21 11
20 -15 30 -60 53 -49 26z"/>
<path d="M4863 1848 c-28 -13 -28 -18 -5 -44 28 -31 60 -96 67 -137 7 -37 8
-37 44 -31 45 8 44 7 32 35 -5 13 -17 49 -26 79 -9 30 -20 57 -24 60 -3 3 -11
14 -17 25 -13 24 -40 28 -71 13z"/>
<path d="M3774 1807 c-18 -12 -40 -34 -50 -49 -11 -16 -27 -31 -37 -34 -9 -3
-31 -23 -49 -45 -17 -21 -36 -39 -43 -39 -6 0 -35 21 -64 48 -30 26 -60 49
-68 52 -18 7 -91 -61 -115 -107 l-18 -32 42 -38 c23 -21 50 -46 61 -56 10 -10
33 -25 51 -32 30 -13 34 -12 64 16 17 16 34 29 38 29 4 0 12 7 19 16 10 14 15
12 39 -17 16 -19 47 -54 70 -79 22 -25 61 -70 86 -100 25 -30 55 -63 67 -73
13 -10 23 -24 23 -32 0 -18 68 -116 99 -142 33 -29 40 -28 78 5 55 47 73 62
78 62 5 0 30 20 69 55 12 11 37 32 55 48 30 25 32 31 26 64 -8 43 -37 84 -123
175 -35 36 -70 76 -78 87 -21 29 -93 101 -134 133 -19 15 -55 45 -79 67 -50
46 -63 49 -107 18z"/>
<path d="M1235 1059 c-4 -6 -5 -13 -2 -16 7 -7 27 6 27 18 0 12 -17 12 -25 -2z"/>
<path d="M1218 873 c12 -2 32 -2 45 0 12 2 2 4 -23 4 -25 0 -35 -2 -22 -4z"/>
<path d="M1458 873 c12 -2 32 -2 45 0 12 2 2 4 -23 4 -25 0 -35 -2 -22 -4z"/>
</g>
</svg>
